<svg width="1280" height="121" viewBox="0 0 1280 121" fill="none" xmlns="http://www.w3.org/2000/svg">
<path d="M86.0874 28.623H0C0 39.8562 9.09764 48.9557 20.3284 48.9557H61.608V118.857H86.0874V28.623Z" fill="#A79691"/>
<path d="M116.92 1.92578H0C0 13.1589 9.09764 22.2584 20.3284 22.2584H92.4408V118.859H116.92V1.92578Z" fill="#A79691"/>
<path d="M154.061 28.623H240.149C240.149 39.8562 231.051 48.9557 219.82 48.9557H178.541V118.857H154.061V28.623Z" fill="#A79691"/>
<path d="M123.23 1.92578H240.151C240.151 13.1589 231.053 22.2584 219.822 22.2584H147.71V118.859H123.23V1.92578Z" fill="#A79691"/>
<path d="M1280 34.7695V57.3613H1274.87C1261.25 57.3613 1254.68 64.5714 1254.68 76.5884V119.048H1231.93V35.2502H1254.68V48.7091C1258.53 40.6979 1266.86 34.7695 1277.6 34.7695H1280Z" fill="#A79691"/>
<path d="M1227.24 76.9085C1227.24 102.705 1209.94 120.81 1186.06 120.81C1162.35 120.81 1145.05 102.705 1145.05 76.9085C1145.05 51.2725 1162.35 33.167 1186.06 33.167C1209.94 33.167 1227.24 51.2725 1227.24 76.9085ZM1167.48 76.9085C1167.48 92.1299 1174.05 102.705 1186.06 102.705C1198.08 102.705 1204.65 92.1299 1204.65 76.9085C1204.65 61.8473 1198.08 51.1122 1186.06 51.1122C1174.05 51.1122 1167.48 61.8473 1167.48 76.9085Z" fill="#A79691"/>
<path d="M1068.35 92.1299H1091.1C1091.9 99.5003 1098.15 104.147 1107.28 104.147C1114.81 104.147 1121.06 100.942 1121.06 95.1742C1121.06 91.0083 1118.82 88.4447 1112.73 87.3232L1093.18 83.1573C1080.85 80.5937 1071.07 74.9858 1071.07 60.7258C1071.07 45.6646 1085.17 33.167 1106 33.167C1128.27 33.167 1140.93 45.0237 1142.53 60.886H1120.58C1119.62 54.477 1114.65 49.6702 1105.68 49.6702C1098.31 49.6702 1093.18 53.5156 1093.18 58.6428C1093.18 62.6485 1095.75 64.5712 1100.87 65.6927L1120.9 70.0188C1135.48 73.0631 1143.33 80.7539 1143.33 93.2515C1143.33 110.235 1127.31 120.81 1107.28 120.81C1084.69 120.81 1069.79 109.114 1068.35 92.1299Z" fill="#A79691"/>
<path d="M989.72 118.888V35.0897H1012.15V45.8248C1016.48 39.4158 1024.97 33.167 1036.83 33.167C1054.13 33.167 1065.34 45.8248 1065.34 64.0905V118.888H1042.91V69.3779C1042.91 59.1235 1038.11 52.0736 1028.17 52.0736C1019.52 52.0736 1012.15 58.3224 1012.15 69.8586V118.888H989.72Z" fill="#A79691"/>
<path d="M984.313 91.9697C981.429 109.274 966.689 120.81 946.982 120.81C922.949 120.81 905.965 102.865 905.965 77.0687C905.965 51.9134 923.75 33.167 946.982 33.167C971.015 33.167 985.435 51.7531 985.435 75.6267C985.435 78.3505 985.275 80.4335 984.794 83.1573H927.114C929.037 96.7765 937.048 103.025 946.822 103.025C955.794 103.025 961.722 98.8594 963.645 91.9697H984.313ZM946.822 50.6316C936.247 50.6316 929.998 57.8417 927.755 67.7757H963.645C963.324 58.6428 957.076 50.6316 946.822 50.6316Z" fill="#A79691"/>
<path d="M928.76 22.2705H890.947V118.886H867.715V22.2705H829.903V1.92188H928.76V22.2705Z" fill="#A79691"/>
<path d="M797.013 1.92188V118.886H774.582V1.92188H797.013Z" fill="#A79691"/>
<path d="M738.986 66.1734C743.793 65.5325 746.357 63.4496 746.357 59.1235C746.357 53.6758 741.87 49.8304 733.379 49.8304C724.406 49.8304 719.439 54.3167 718.478 60.886H696.688C698.29 45.985 711.268 33.167 733.699 33.167C757.412 33.167 767.986 45.3441 767.986 64.4109V101.904C767.986 107.512 768.307 112.959 768.948 118.888H747.798C747.158 115.843 746.837 112.639 746.677 109.274C742.191 116.164 733.379 120.81 722.003 120.81C705.981 120.81 692.843 111.037 692.843 95.1742C692.843 77.3892 707.102 70.6597 724.086 68.2563L738.986 66.1734ZM713.992 93.8924C713.992 100.622 719.279 104.467 726.97 104.467C737.544 104.467 746.357 98.2185 746.357 86.3618V79.7926L728.572 82.5164C720.24 83.7982 713.992 86.522 713.992 93.8924Z" fill="#A79691"/>
<path d="M695.13 34.7695V57.3613H690.003C676.384 57.3613 669.815 64.5714 669.815 76.5884V119.048H647.063V35.2502H669.815V48.7091C673.66 40.6979 681.992 34.7695 692.726 34.7695H695.13Z" fill="#A79691"/>
<path d="M641.652 91.9697C638.768 109.274 624.027 120.81 604.32 120.81C580.287 120.81 563.303 102.865 563.303 77.0687C563.303 51.9134 581.088 33.167 604.32 33.167C628.353 33.167 642.773 51.7531 642.773 75.6267C642.773 78.3505 642.613 80.4335 642.132 83.1573H584.452C586.375 96.7765 594.386 103.025 604.16 103.025C613.132 103.025 619.06 98.8594 620.983 91.9697H641.652ZM604.16 50.6316C593.585 50.6316 587.336 57.8417 585.093 67.7757H620.983C620.663 58.6428 614.414 50.6316 604.16 50.6316Z" fill="#A79691"/>
<path d="M483.557 118.888V35.0897H505.988V45.8248C510.314 39.4158 518.805 33.167 530.662 33.167C547.966 33.167 559.181 45.8248 559.181 64.0905V118.888H536.75V69.3779C536.75 59.1235 531.944 52.0736 522.01 52.0736C513.358 52.0736 505.988 58.3224 505.988 69.8586V118.888H483.557Z" fill="#A79691"/>
<path d="M478.145 91.9697C475.261 109.274 460.521 120.81 440.813 120.81C416.78 120.81 399.797 102.865 399.797 77.0687C399.797 51.9134 417.581 33.167 440.813 33.167C464.847 33.167 479.266 51.7531 479.266 75.6267C479.266 78.3505 479.106 80.4335 478.626 83.1573H420.946C422.869 96.7765 430.88 103.025 440.653 103.025C449.626 103.025 455.554 98.8594 457.476 91.9697H478.145ZM440.653 50.6316C430.078 50.6316 423.83 57.8417 421.587 67.7757H457.476C457.156 58.6428 450.907 50.6316 440.653 50.6316Z" fill="#A79691"/>
<path d="M349.413 57.5209H395.717V118.887H375.048V108.152C368.639 115.683 357.744 120.81 344.926 120.81C313.523 120.81 289.49 96.1352 289.49 60.405C289.49 24.6747 313.523 0 345.567 0C373.125 0 391.07 15.8623 394.755 39.4154H370.722C367.518 28.3599 359.186 20.9895 345.567 20.9895C325.54 20.9895 313.363 37.653 313.363 60.405C313.363 83.157 325.379 99.8204 346.048 99.8204C361.75 99.8204 372.164 91.008 374.407 77.0684H349.413V57.5209Z" fill="#A79691"/>
</svg>
