<svg width="203" height="16" viewBox="0 0 203 16" fill="none" xmlns="http://www.w3.org/2000/svg">
<path d="M58.6818 0.16739C57.1564 0.518233 55.7378 1.58602 55.1429 2.80634C54.0294 5.0792 54.8531 7.44358 57.0954 8.4656C57.5378 8.6639 58.5445 9.01474 59.3377 9.2283C62.4037 10.0825 62.8918 10.2503 63.2427 10.6012C63.6392 10.9978 63.7155 11.5774 63.4409 12.0808C63.1511 12.6147 62.1291 12.9655 60.7563 12.9655C59.1852 12.9655 58.2242 12.7367 56.7598 12.035C56.1192 11.7147 55.5853 11.4859 55.57 11.5012C55.4022 11.669 54.3497 14.1401 54.4108 14.2316C54.5633 14.4757 56.3175 15.2537 57.37 15.5587C60.5733 16.4435 63.9901 15.9706 65.7443 14.3842C66.7205 13.5147 67.1323 12.7062 67.2239 11.5164C67.3306 10.2503 67.0713 9.41135 66.3086 8.58763C65.4392 7.64188 64.646 7.27578 61.8393 6.55884C59.3377 5.91817 58.8191 5.67411 58.4225 4.98767C58.2089 4.60632 58.2242 4.53005 58.4987 3.99616C58.7428 3.55379 58.9564 3.37074 59.5665 3.17244C60.9241 2.69956 63.0596 2.92838 64.707 3.72159C65.1494 3.93514 65.5155 4.08768 65.546 4.07243C65.5612 4.04192 65.8205 3.41651 66.0951 2.66906L66.629 1.29619L65.79 0.869078C65.3172 0.625012 64.4935 0.335185 63.9291 0.213152C62.8155 -0.0156593 59.597 -0.0461674 58.6818 0.16739Z" fill="#07235B"/>
<path d="M127.963 0.213409C127.033 0.457475 125.995 1.08289 125.416 1.75407C124.455 2.83711 124.241 4.75912 124.928 6.08622C125.522 7.24553 126.575 7.84044 129.443 8.60314C131.975 9.28958 132.646 9.53364 133.256 9.99126C134.232 10.7387 134.309 12.2031 133.454 13.1946C132.753 13.9878 131.853 14.2624 129.961 14.2624C128.1 14.2624 126.804 13.8963 125.538 13.0268L124.775 12.5082L124.455 13.1489L124.119 13.7895L124.699 14.2777C125.69 15.1471 128.131 15.8641 130.053 15.8641C133.332 15.8641 135.498 14.3539 135.712 11.9133C135.941 9.41161 134.69 8.29806 130.404 7.16926C127.063 6.28452 126.27 5.73538 126.255 4.27099C126.239 3.05066 127.078 2.05915 128.421 1.6778C129.138 1.4795 131.212 1.49475 132.097 1.69305C132.478 1.78458 133.18 2.05915 133.683 2.30322C134.171 2.54728 134.583 2.74558 134.614 2.71508C134.629 2.68457 134.751 2.37949 134.888 2.02864C135.163 1.3117 135.163 1.29645 134.126 0.777809C132.676 0.0456142 129.61 -0.228958 127.963 0.213409Z" fill="#07235B"/>
<path d="M139.617 0.305085C139.037 0.655929 138.701 1.14406 138.564 1.79998L138.473 2.28811H141.615H144.757V8.11516C144.757 13.6676 144.772 13.9727 145.062 14.5829C145.581 15.6507 146.969 16.032 148.189 15.4524C148.845 15.1473 148.86 15.0253 148.266 15.01C148.006 14.9947 147.671 14.8727 147.503 14.7202C147.228 14.4761 147.213 14.171 147.167 9.16769C147.122 3.31013 147.106 3.20336 146.084 2.59319L145.596 2.28811H148.616C151.103 2.28811 151.743 2.24235 152.17 2.04405C152.781 1.75422 153.269 1.12881 153.391 0.47288L153.498 3.8147e-06H146.801C140.44 3.8147e-06 140.074 0.0152588 139.617 0.305085Z" fill="#07235B"/>
<path d="M0 1.67797V3.20337H2.44059H4.88119V9.45754V15.7117H6.71163H8.54208V9.45754V3.20337L11.0284 3.17286L13.4995 3.1271V1.67797V0.228829L6.75739 0.183067L0 0.152559V1.67797Z" fill="#07235B"/>
<path d="M17.543 7.91688V15.7117H19.3734H21.2039V13.5761V11.4253L22.836 11.4711L24.4834 11.5168L25.9173 13.6066L27.3664 15.7117H29.3188C30.3866 15.7117 31.2713 15.6812 31.2713 15.6507C31.2713 15.6049 30.5239 14.5066 29.5934 13.1795L27.9307 10.7846L28.5714 10.3728C30.173 9.3355 31.012 7.82535 31.012 5.96436C31.012 5.32369 30.9357 4.51522 30.8289 4.16438C30.4018 2.62372 28.907 1.15933 27.1528 0.579676C26.2528 0.274594 25.78 0.244086 21.8598 0.18307L17.543 0.122054V7.91688ZM26.0088 3.59998C26.863 4.02709 27.3511 4.9881 27.2596 6.07114C27.1223 7.90162 25.9325 8.54229 22.6225 8.54229H21.2039V5.85758V3.17287L23.3089 3.23388C25.0478 3.26439 25.5054 3.32541 26.0088 3.59998Z" fill="#07235B"/>
<path d="M35.8477 5.20113C35.8477 10.6926 35.9239 11.379 36.7324 12.8587C38.2425 15.6654 42.422 16.7942 46.0981 15.4061C47.1812 15.0095 48.4472 13.8807 49.0269 12.8129C49.8201 11.3485 49.8811 10.8909 49.8811 5.29266V0.136785L48.0964 0.182548L46.2964 0.22831L46.2202 5.41469C46.1592 10.0824 46.1134 10.6621 45.8541 11.1807C45.5033 11.8977 44.8473 12.4468 44.1152 12.6604C42.3762 13.1332 40.6526 12.5383 39.9814 11.2112L39.5848 10.4485L39.5391 5.29266L39.4933 0.152039H37.6628H35.8477V5.20113Z" fill="#07235B"/>
<path d="M69.8633 1.67797V3.20337H72.3039H74.7445V9.45754V15.7117H76.6512H78.5579V9.45754V3.20337H80.9985H83.4391V1.67797V0.152559H76.6512H69.8633V1.67797Z" fill="#07235B"/>
<path d="M87.5091 0.259337C87.4481 0.3051 87.4023 3.81353 87.4023 8.03891V15.7117L93.4733 15.6812L99.529 15.6354V14.2626V12.8897L95.3648 12.8134L91.2005 12.7372L91.17 11.0135L91.1395 9.305H94.6936H98.2325V7.85586V6.40672H94.7394H91.231L91.1853 4.80505L91.1395 3.20337L95.1817 3.17286L99.224 3.1271V1.67797V0.228829L93.4123 0.183067C90.2243 0.167813 87.5701 0.198321 87.5091 0.259337Z" fill="#07235B"/>
<path d="M104.486 7.93213V15.7117H108.651C113.349 15.7117 114.279 15.5897 116.003 14.7354C118.672 13.4083 120.045 11.0897 120.045 7.93213C120.045 4.78979 118.688 2.53219 115.972 1.17458C114.249 0.3051 113.166 0.152559 108.529 0.152559H104.486V7.93213ZM113.517 3.58472C116.399 4.622 117.33 8.7711 115.225 11.1202C114.142 12.3406 113.41 12.5694 110.557 12.6304L108.147 12.6914V7.93213V3.17286L110.481 3.24913C112.113 3.2949 113.013 3.40167 113.517 3.58472Z" fill="#07235B"/>
<path d="M159.721 0.79323C159.568 1.15933 158.897 2.65423 158.211 4.11862C157.54 5.583 156.396 8.08467 155.664 9.68635C154.947 11.2728 154.047 13.2405 153.665 14.049C153.299 14.8422 152.994 15.5439 152.994 15.6049C152.994 15.6659 153.391 15.7117 153.879 15.7117H154.779L155.664 13.6524L156.564 11.5931L160.896 11.6236L165.243 11.6694L166.112 13.6524L166.967 15.6354L167.928 15.6812C168.675 15.7117 168.873 15.6812 168.812 15.5287C168.766 15.4219 168.278 14.3693 167.744 13.1948C165.777 8.9389 163.168 3.24913 162.497 1.70847L161.796 0.152559H160.896H159.996L159.721 0.79323ZM162.757 6.16266C163.672 8.22196 164.434 9.94567 164.434 9.99143C164.434 10.0372 162.833 10.0677 160.865 10.0677H157.28L158.241 7.88637C158.775 6.69655 159.584 4.88132 160.026 3.87455C160.545 2.71524 160.896 2.08982 160.957 2.21186C161.033 2.31864 161.826 4.10336 162.757 6.16266Z" fill="#07235B"/>
<path d="M173.588 7.93213V15.7117H174.427H175.266V13.6829V11.6694L176.867 10.0677C177.737 9.19822 178.484 8.51179 178.515 8.55755C179.583 9.85414 184.662 15.6049 184.799 15.6507C184.906 15.6964 185.379 15.7117 185.867 15.6812L186.737 15.6354L183.213 11.4711C181.276 9.16771 179.689 7.2457 179.689 7.19994C179.689 7.13892 181.169 5.5525 182.954 3.661L186.218 0.228832L185.287 0.18307L184.342 0.122054L179.811 4.75929L175.281 9.38127L175.266 4.75929V0.152562H174.427H173.588V7.93213Z" fill="#07235B"/>
<path d="M191.588 7.93213V15.7117H197.079H202.571V14.949V14.1863H197.918H193.266V11.3643V8.54229H197.308H201.35V7.77959V7.01689H197.308H193.266V4.34743V1.67797H197.766H202.265V0.915262V0.152559H196.927H191.588V7.93213Z" fill="#07235B"/>
</svg>
